# xmcd
#
# Track frame offsets: 
#        150
#        22766
#        39736
#        55492
#        72025
#        94721
#        121558
#        136177
#        157523
#        178688
#        200041
#        217559
#        234163
#        251521
#        267117
#
# Disc length: 3785 seconds
#
# Revision: 0
# Processed by: cddbd v1.5.2PL0 Copyright (c) Steve Scherf et al.
# Submitted via: ExactAudioCopyFreeDBPlugin 1.0
#
DISCID=b40ec70f
DTITLE=Joss Stone - The Soul Sessions, Vol. 2
DYEAR=2012
DGENRE=Rhythmic Soul
TTITLE0=I Got The...
TTITLE1=(For God's Sake)  Give more Power for The People
TTITLE2=While You're Out Looking for Sugar
TTITLE3=Sideway Shuffle
TTITLE4=I Don't Want to be with Nobody but you
TTITLE5=Teardrops
TTITLE6=Stoned Out of My Mind
TTITLE7=The Love We Had
TTITLE8=The High Road
TTITLE9=Pillow Talk
TTITLE10=Then You Can Tell Me Goodbye
TTITLE11=First Taste of Hurt
TTITLE12=One Love in My Lifetime
TTITLE13=Nothing Takes The Place of You
TTITLE14=(1-2-3-4-5-6-7) Count The Days
EXTD=
EXTT0=
EXTT1=
EXTT2=
EXTT3=
EXTT4=
EXTT5=
EXTT6=
EXTT7=
EXTT8=
EXTT9=
EXTT10=
EXTT11=
EXTT12=
EXTT13=
EXTT14=
PLAYORDER=
